<svg xmlns="http://www.w3.org/2000/svg" viewBox="0 0 32 32" width="32" height="32">
  <defs>
    <!-- Gradient for the crescent moon -->
    <linearGradient id="moonGradient" x1="0%" y1="0%" x2="100%" y2="100%">
      <stop offset="0%" style="stop-color:#FFD700;stop-opacity:1" />
      <stop offset="50%" style="stop-color:#FFF8DC;stop-opacity:1" />
      <stop offset="100%" style="stop-color:#FF69B4;stop-opacity:1" />
    </linearGradient>
    <!-- Gradient for the heart -->
    <radialGradient id="heartGradient" cx="50%" cy="50%" r="50%">
      <stop offset="0%" style="stop-color:#FF1493;stop-opacity:1" />
      <stop offset="100%" style="stop-color:#DC143C;stop-opacity:1" />
    </radialGradient>
  </defs>
  
  <!-- Background circle for contrast -->
  <circle cx="16" cy="16" r="15" fill="#000080" opacity="0.8"/>
  
  <!-- Crescent moon shape -->
  <path d="M8 16 C8 10, 12 6, 16 6 C14 6, 12 8, 12 12 C12 20, 20 20, 20 16 C20 22, 14 26, 8 16 Z" 
        fill="url(#moonGradient)" 
        stroke="#FFD700" 
        stroke-width="0.5"/>
  
  <!-- Small heart in the center -->
  <path d="M16 14 C15 13, 13.5 13, 13.5 14.5 C13.5 15.5, 16 18, 16 18 C16 18, 18.5 15.5, 18.5 14.5 C18.5 13, 17 13, 16 14 Z" 
        fill="url(#heartGradient)"/>
  
  <!-- Sailor Moon style sparkles -->
  <g fill="#FFD700" opacity="0.9">
    <circle cx="6" cy="8" r="0.8"/>
    <circle cx="26" cy="6" r="1"/>
    <circle cx="28" cy="20" r="0.6"/>
    <circle cx="4" cy="24" r="0.7"/>
    <circle cx="22" cy="28" r="0.5"/>
  </g>
  
  <!-- Four-pointed stars -->
  <g fill="#FFFFFF" opacity="0.8">
    <path d="M24 12 L25 14 L24 16 L23 14 Z"/>
    <path d="M10 6 L11 8 L10 10 L9 8 Z"/>
    <path d="M7 20 L8 22 L7 24 L6 22 Z"/>
  </g>
</svg>
